<mxfile host="app.diagrams.net" modified="2024-06-13T08:03:05.743Z" agent="Mozilla/5.0 (Macintosh; Intel Mac OS X 10_15_7) AppleWebKit/537.36 (KHTML, like Gecko) Chrome/125.0.0.0 Safari/537.36" version="24.5.4" etag="2QD0JPFDkY_CJMEN--ta" type="github">
  <diagram name="Page-1" id="ZK1K9xqwqatIkuhavQ9t">
    <mxGraphModel>
      <root>
        <mxCell id="0" />
        <mxCell id="1" parent="0" />
      </root>
    </mxGraphModel>
  </diagram>
</mxfile>
